<svg width="256" height="256" viewBox="0 0 256 256" fill="none" xmlns="http://www.w3.org/2000/svg">
  <circle cx="128" cy="128" r="92" fill="rgba(255,255,255,0.04)"/>
  <path
    d="M128 52C86 52 52 86 52 128C52 170 86 204 128 204C145.8 204 162.2 197.9 175.2 187.7L194.3 206.8C198.3 210.8 204.7 210.8 208.7 206.8C212.7 202.8 212.7 196.3 208.7 192.3L189.8 173.4C200.2 160.3 206.5 143.6 206.5 125.5C206.5 84.4 173.1 52 132 52H128ZM128 76H131.1C159.3 76 182.5 99.2 182.5 127.4C182.5 155.6 159.3 178.8 131.1 178.8H128C99.3 178.8 75.5 155.5 75.5 128C75.5 99.3 99.3 76 128 76Z"
    fill="#FCFBFF"
  />
  <circle cx="150" cy="96" r="11" fill="#F5D0FE"/>
  <path
    d="M170.5 169.5L196 195"
    stroke="#C084FC"
    stroke-width="14"
    stroke-linecap="round"
  />
</svg>
